# xmcd CD database file
#
# Track frame offsets:
#	187
#	19912
#	40512
#
# Disc length: 832 seconds
#
# Revision: 2
# Processed by: cddbd v1.5.2PL0 Copyright (c) Steve Scherf et al.
# Submitted via: CDex 1.70beta2
#
DISCID=18033e03
DTITLE=Rhapsody Of Fire - Emerald Sword
DYEAR=1998
DGENRE=Symphonic Metal
TTITLE0=Emerald Sword
TTITLE1=Where Dragons Fly
TTITLE2=Land Of Immortals (Remake)
EXTD=YEAR: 1998
EXTT0=
EXTT1=
EXTT2=
PLAYORDER=
